STARTFONT 2.1
FONT -FontForge-Fontdiner Swanky-Book-R-Normal--24-240-72-72-P-151-ISO10646-1
SIZE 24 72 72
FONTBOUNDINGBOX 34 37 -6 -12
COMMENT "Generated by fontforge, http://fontforge.sourceforge.net"
COMMENT "Copyright (c) 2010 by Font Diner, Inc. All rights reserved."
STARTPROPERTIES 39
FOUNDRY "FontForge"
FAMILY_NAME "Fontdiner Swanky"
WEIGHT_NAME "Book"
SLANT "R"
SETWIDTH_NAME "Normal"
ADD_STYLE_NAME ""
PIXEL_SIZE 24
POINT_SIZE 240
RESOLUTION_X 72
RESOLUTION_Y 72
SPACING "P"
AVERAGE_WIDTH 151
CHARSET_REGISTRY "ISO10646"
CHARSET_ENCODING "1"
FONTNAME_REGISTRY ""
CHARSET_COLLECTIONS "ISO10646-1"
FONT_NAME "FontdinerSwanky-Regular"
FACE_NAME "Fontdiner Swanky Regular"
COPYRIGHT "Copyright (c) 2010 by Font Diner, Inc. All rights reserved."
FONT_VERSION "1.001"
FONT_ASCENT 19
FONT_DESCENT 5
UNDERLINE_POSITION -2
UNDERLINE_THICKNESS 2
X_HEIGHT 13
CAP_HEIGHT 14
RAW_ASCENT 799
RAW_DESCENT 200
NORM_SPACE 8
RELATIVE_WEIGHT 40
RELATIVE_SETWIDTH 50
SUPERSCRIPT_X 0
SUPERSCRIPT_Y 11
SUPERSCRIPT_SIZE 15
SUBSCRIPT_X 0
SUBSCRIPT_Y 3
SUBSCRIPT_SIZE 15
AVG_LOWERCASE_WIDTH 151
AVG_UPPERCASE_WIDTH 185
ENDPROPERTIES
CHARS 231
STARTCHAR space
ENCODING 32
SWIDTH 320 0
DWIDTH 8 0
BBX 1 1 0 0
BITMAP
00
ENDCHAR
STARTCHAR exclam
ENCODING 33
SWIDTH 305 0
DWIDTH 7 0
BBX 7 20 0 0
BITMAP
3E
3E
3E
3E
3E
3C
3C
3C
3C
3C
38
38
38
38
38
18
00
78
F8
78
ENDCHAR
STARTCHAR quotedbl
ENCODING 34
SWIDTH 369 0
DWIDTH 9 0
BBX 9 6 0 10
BITMAP
F780
F780
F700
7700
7700
7700
ENDCHAR
STARTCHAR numbersign
ENCODING 35
SWIDTH 702 0
DWIDTH 17 0
BBX 17 15 0 1
BITMAP
0E1800
0E1800
0E1800
7FFF80
7FFF00
7FFF00
0E3800
0C3800
0C3800
FFFF00
FFFF00
FFFF00
1C3800
1C7800
1C7000
ENDCHAR
STARTCHAR dollar
ENCODING 36
SWIDTH 545 0
DWIDTH 13 0
BBX 13 21 0 -3
BITMAP
0300
0F00
0E00
0610
3F90
7FF0
F0F0
F030
F810
7F10
3FC0
9FF0
47F8
40F8
6078
7878
FFF0
8FC0
8700
0700
0700
ENDCHAR
STARTCHAR percent
ENCODING 37
SWIDTH 657 0
DWIDTH 16 0
BBX 16 20 0 -1
BITMAP
0010
183C
7E38
EE78
E670
E670
7EF0
3CE0
01E0
01C0
01C0
0380
0380
07BE
077F
0773
0E73
0E7F
1C3E
0C00
ENDCHAR
STARTCHAR ampersand
ENCODING 38
SWIDTH 668 0
DWIDTH 16 0
BBX 18 21 1 -3
BITMAP
1F0000
3FC000
71C000
70C000
70C000
79C000
3D8000
1F0000
1F1000
3F1000
778800
F3DC00
E3FE00
E1F900
F0F1C0
FFFF00
7FFC00
3E3800
007000
004000
008000
ENDCHAR
STARTCHAR quotesingle
ENCODING 39
SWIDTH 177 0
DWIDTH 4 0
BBX 4 6 0 10
BITMAP
F0
F0
F0
70
70
70
ENDCHAR
STARTCHAR parenleft
ENCODING 40
SWIDTH 384 0
DWIDTH 9 0
BBX 8 24 1 -4
BITMAP
03
0E
1C
3C
38
78
70
70
F0
F0
F0
F0
F0
F0
F0
70
78
78
38
3C
1C
0E
03
01
ENDCHAR
STARTCHAR parenright
ENCODING 41
SWIDTH 375 0
DWIDTH 9 0
BBX 8 24 0 -4
BITMAP
C0
70
38
1C
1E
0E
0E
0F
0F
0F
07
0F
0F
0F
0F
0F
0E
1E
1E
3C
38
70
40
80
ENDCHAR
STARTCHAR asterisk
ENCODING 42
SWIDTH 640 0
DWIDTH 15 0
BBX 15 15 0 0
BITMAP
1C60
3C70
1EF8
0EF0
0EE0
F7C2
FFFE
FFFE
FFDE
07E0
0EF0
1EF0
3CF8
1C60
0800
ENDCHAR
STARTCHAR plus
ENCODING 43
SWIDTH 607 0
DWIDTH 15 0
BBX 14 14 0 1
BITMAP
0780
0780
0780
0780
0780
FFFC
FFFC
FFFC
FF80
0380
0380
0380
0380
0380
ENDCHAR
STARTCHAR comma
ENCODING 44
SWIDTH 226 0
DWIDTH 5 0
BBX 5 7 0 -5
BITMAP
30
F8
F8
78
38
30
60
ENDCHAR
STARTCHAR hyphen
ENCODING 45
SWIDTH 549 0
DWIDTH 13 0
BBX 11 4 1 6
BITMAP
7FE0
7FE0
FFE0
FF00
ENDCHAR
STARTCHAR period
ENCODING 46
SWIDTH 226 0
DWIDTH 5 0
BBX 5 4 0 -2
BITMAP
70
F8
F8
78
ENDCHAR
STARTCHAR slash
ENCODING 47
SWIDTH 600 0
DWIDTH 14 0
BBX 16 23 -1 -2
BITMAP
000C
000E
001F
003E
003E
007C
0078
00F8
00F0
01F0
03E0
03C0
07C0
0780
0F00
1F00
1E00
3E00
3C00
7800
F800
7000
1000
ENDCHAR
STARTCHAR zero
ENCODING 48
SWIDTH 740 0
DWIDTH 18 0
BBX 17 15 0 0
BITMAP
07F800
1FFC00
3F3F00
7C0F00
780780
780780
F80780
F00780
780780
780780
780F80
3C0F00
3F7E00
0FFC00
03F000
ENDCHAR
STARTCHAR one
ENCODING 49
SWIDTH 503 0
DWIDTH 12 0
BBX 16 18 -2 -1
BITMAP
03E0
FFE0
0FE0
03E0
01E0
01E0
01E0
01E0
01E0
01E0
01E0
01E0
01C0
01C0
01C0
03E0
0FF8
3FFF
ENDCHAR
STARTCHAR two
ENCODING 50
SWIDTH 638 0
DWIDTH 15 0
BBX 15 20 0 -1
BITMAP
8000
4000
47F0
6FF8
7E7C
781C
301E
301E
201C
203C
2078
21F2
07C4
1F04
3C0C
780C
783C
FFFC
FFFC
03FC
ENDCHAR
STARTCHAR three
ENCODING 51
SWIDTH 620 0
DWIDTH 15 0
BBX 14 22 0 -3
BITMAP
8000
8000
C7C0
5FF0
7FF8
787C
603C
603C
203C
4078
07F8
07F8
40FC
407C
603C
603C
707C
7FF8
DFF0
87C0
8000
8000
ENDCHAR
STARTCHAR four
ENCODING 52
SWIDTH 606 0
DWIDTH 15 0
BBX 15 21 -1 -2
BITMAP
0008
0010
0030
0030
0070
00F0
01F0
03F0
07F0
0FF2
0EF2
1CF2
38F6
7FFE
FFFE
00F6
00F2
00F2
00F2
03F8
1FFE
ENDCHAR
STARTCHAR five
ENCODING 53
SWIDTH 610 0
DWIDTH 15 0
BBX 14 19 0 -1
BITMAP
000C
07FC
FFF8
FFF8
F008
7008
7008
7FE8
7FF0
71F8
407C
003C
403C
403C
607C
78F8
7FF0
5FE0
83C0
ENDCHAR
STARTCHAR six
ENCODING 54
SWIDTH 619 0
DWIDTH 15 0
BBX 15 22 0 -2
BITMAP
0008
0008
0008
0398
0FD8
1FF8
3E78
3C18
7808
7FE4
FFF8
FC7C
F83C
F01E
F01E
F01E
F01E
781C
783C
3EF8
1FF0
03C0
ENDCHAR
STARTCHAR seven
ENCODING 55
SWIDTH 598 0
DWIDTH 14 0
BBX 16 18 0 -1
BITMAP
FFFF
7FFE
7FFE
703C
707C
207C
2078
2078
00F0
00F0
00F0
00E0
01E0
01C0
01C0
03C0
0FE0
3FFE
ENDCHAR
STARTCHAR eight
ENCODING 56
SWIDTH 642 0
DWIDTH 15 0
BBX 16 19 0 -2
BITMAP
07E0
1FF0
3C78
7C3C
783C
781C
783C
3C3C
3EF8
3FF8
7FFC
7C3E
F81E
F81F
F81F
F83E
7C3E
3FFC
0FF0
ENDCHAR
STARTCHAR nine
ENCODING 57
SWIDTH 610 0
DWIDTH 15 0
BBX 15 20 0 -3
BITMAP
0FC0
3FF0
7C78
783C
F03C
F03C
F03C
F03E
F83E
7CFC
3FFC
1FFC
403C
6078
38F8
3FF0
3FE0
37C0
2000
2000
ENDCHAR
STARTCHAR colon
ENCODING 58
SWIDTH 223 0
DWIDTH 5 0
BBX 5 10 0 -2
BITMAP
70
F8
F8
70
00
00
70
F8
F8
70
ENDCHAR
STARTCHAR semicolon
ENCODING 59
SWIDTH 228 0
DWIDTH 5 0
BBX 5 13 0 -5
BITMAP
70
F8
F8
70
00
00
70
F8
F8
F8
30
30
40
ENDCHAR
STARTCHAR less
ENCODING 60
SWIDTH 563 0
DWIDTH 14 0
BBX 14 16 0 0
BITMAP
0008
001C
007C
01FC
03FC
0FF0
3FC0
FF00
7C00
3E00
0F80
03C0
01E0
0070
0038
0008
ENDCHAR
STARTCHAR equal
ENCODING 61
SWIDTH 531 0
DWIDTH 13 0
BBX 13 9 0 2
BITMAP
FFF8
FFF8
FFF0
FFF0
0000
FFF8
FFF8
FFF0
3FF0
ENDCHAR
STARTCHAR greater
ENCODING 62
SWIDTH 576 0
DWIDTH 14 0
BBX 14 16 0 0
BITMAP
4000
6000
F800
FE00
FF00
3FC0
0FF0
03FC
00F8
01F0
03C0
0F80
1E00
3C00
7000
4000
ENDCHAR
STARTCHAR question
ENCODING 63
SWIDTH 592 0
DWIDTH 14 0
BBX 14 22 0 -1
BITMAP
4000
6000
7FC0
7FF0
60F8
C07C
803C
803C
003C
003C
1078
1FF8
1FE0
1E00
1E00
1C00
0C00
0000
7800
FC00
7C00
3800
ENDCHAR
STARTCHAR at
ENCODING 64
SWIDTH 792 0
DWIDTH 19 0
BBX 20 17 0 -1
BITMAP
03FC00
0FFF00
1E0380
38F1C0
71F8E0
731CE0
E38CE0
E30C70
E1FC70
E3FCF0
E71CE0
F71CE0
73FCE0
78DCC0
3C0F80
1F0700
03F800
ENDCHAR
STARTCHAR A
ENCODING 65
SWIDTH 788 0
DWIDTH 19 0
BBX 28 21 -4 -5
BITMAP
03FE0000
007E0000
001F0000
000F0000
001F8000
001F8000
0037C000
0033C000
0063E000
0061E000
00FFF000
00FFF000
01E0F800
0380F800
03007C00
0F807C00
FFC03E00
00F03F80
00003FF0
00007E00
0001E000
ENDCHAR
STARTCHAR B
ENCODING 66
SWIDTH 774 0
DWIDTH 19 0
BBX 22 19 -3 -3
BITMAP
FFFC00
1FFFE0
07FFF0
07C0F8
07C03C
03C03C
03C078
03C3F0
03FFE0
03FFC0
03C7E0
03C0F0
03C0F8
03C0F8
03C1F8
03CFF0
07FFC0
0FFC00
780000
ENDCHAR
STARTCHAR C
ENCODING 67
SWIDTH 766 0
DWIDTH 18 0
BBX 18 20 0 -2
BITMAP
000040
000040
07FCC0
0FFFC0
1F8780
3E0380
7C0180
780080
780080
F80080
F80000
780000
780080
7C0080
7C0080
3E0180
1F8780
0FFF80
03FC40
000040
ENDCHAR
STARTCHAR D
ENCODING 68
SWIDTH 833 0
DWIDTH 20 0
BBX 23 17 -3 -1
BITMAP
FFFF80
0FFFE0
03F1F8
01F07C
01F03C
01F01E
01F01E
01E01E
01E01E
00E01E
00E01E
00E03C
00E03C
00E078
01FFF0
07FFC0
1F0000
ENDCHAR
STARTCHAR E
ENCODING 69
SWIDTH 781 0
DWIDTH 19 0
BBX 20 18 -2 -1
BITMAP
00FFF0
FFFFF0
0FC070
03C070
03C230
03C230
03C610
03C610
03CE00
03FC20
03FC20
03CC20
03C420
03C460
03C260
03CFE0
1FFFE0
FF8000
ENDCHAR
STARTCHAR F
ENCODING 70
SWIDTH 731 0
DWIDTH 18 0
BBX 19 18 -2 -1
BITMAP
007FE0
FFFFE0
1FC0E0
07C060
03C260
03C460
03C420
03CC20
03DC20
03FC00
03FC00
03CC00
03CC00
03C400
03C400
03C000
07C000
7FFE00
ENDCHAR
STARTCHAR G
ENCODING 71
SWIDTH 828 0
DWIDTH 20 0
BBX 22 19 0 -1
BITMAP
000040
0070C0
07FFC0
1FFFC0
3F0780
3E0380
7C0180
7C0080
780080
F88080
F87FFC
780FC0
7803C0
7C03C0
7C03C0
3E07C0
1F8FC0
0FFE40
03F820
ENDCHAR
STARTCHAR H
ENCODING 72
SWIDTH 797 0
DWIDTH 19 0
BBX 23 19 -2 -2
BITMAP
003FFE
0007F0
FFF9E0
1FC1E0
0F81E0
0F81E0
0F81E0
0F01E0
0F01E0
0FFFE0
0FFFE0
07E1E0
0701C0
0701C0
0701C0
0703E0
073FFE
0F8000
FFFC00
ENDCHAR
STARTCHAR I
ENCODING 73
SWIDTH 445 0
DWIDTH 11 0
BBX 15 19 -2 -2
BITMAP
F606
3FF8
07C0
03C0
03C0
03C0
03C0
03C0
03C0
03C0
03C0
03C0
03C0
03C0
03C0
03C0
0380
07E0
7FFE
ENDCHAR
STARTCHAR J
ENCODING 74
SWIDTH 718 0
DWIDTH 17 0
BBX 23 21 -3 -3
BITMAP
000006
0003F8
07FFE0
003F80
000780
0007C0
0003C0
0003C0
0003C0
0003C0
0003C0
0003C0
0003C0
C023C0
3FC3C0
0E03C0
0703C0
070780
078F80
03FF00
00FC00
ENDCHAR
STARTCHAR K
ENCODING 75
SWIDTH 934 0
DWIDTH 22 0
BBX 29 20 -2 -2
BITMAP
801E0000
7FF40020
07C3FFC0
07C07E00
07C0F000
03C1E000
03C78000
03DF0000
03FE0000
03F70000
03C78000
03C3C000
03C1E000
03C1F000
03C0F000
03C07800
07E07C00
3FFE3E00
40017F80
0003FFF8
ENDCHAR
STARTCHAR L
ENCODING 76
SWIDTH 712 0
DWIDTH 17 0
BBX 19 19 -2 0
BITMAP
FFFF00
1FF000
03C000
03C000
03C000
03C000
03C000
03C000
03C020
03C020
03C020
03C020
03C060
03C060
03C0E0
03C0E0
03FFE0
0FFFE0
7F0000
ENDCHAR
STARTCHAR M
ENCODING 77
SWIDTH 1033 0
DWIDTH 25 0
BBX 29 18 -2 -1
BITMAP
FFC01FF8
0FE01F80
07E03F00
03F03F00
03F07F00
03F87F00
0378FF00
037DDF00
033DDF00
03BF9E00
039F9E00
039F1E00
038F1E00
03861E00
03861E00
03843F00
0FF0FFF0
FFFF0008
ENDCHAR
STARTCHAR N
ENCODING 78
SWIDTH 840 0
DWIDTH 20 0
BBX 25 18 -2 -1
BITMAP
FFDFFF80
1FE1F800
03F07000
03F07000
03F87000
03FC7000
037E7000
033F7000
031FF000
030FF000
0307E000
0303E000
0303E000
0301E000
0780E000
1FF06000
FFFF2000
00001000
ENDCHAR
STARTCHAR O
ENCODING 79
SWIDTH 808 0
DWIDTH 19 0
BBX 19 15 0 0
BITMAP
00F000
0FFE00
1FFF80
3E07C0
7C03C0
7803E0
7803E0
F803E0
7803E0
7803E0
7C03C0
3C07C0
3E0F80
1FFF00
07FC00
ENDCHAR
STARTCHAR P
ENCODING 80
SWIDTH 746 0
DWIDTH 18 0
BBX 20 16 -2 -1
BITMAP
FFFF00
0FFFC0
0781F0
078070
078070
0780F0
07DFC0
07FF00
07C000
03C000
03C000
03C000
03C000
07C000
1FF800
7FFE00
ENDCHAR
STARTCHAR Q
ENCODING 81
SWIDTH 789 0
DWIDTH 19 0
BBX 21 23 1 -7
BITMAP
00C000
0FF800
3FFE00
7C1F00
F80F80
F00780
F00780
F00780
F00780
F00780
F00780
780F00
7C1F00
3FFE00
0FF800
00F000
007800
007800
007FF8
007FC0
00FE00
01E000
070000
ENDCHAR
STARTCHAR R
ENCODING 82
SWIDTH 826 0
DWIDTH 20 0
BBX 28 22 -2 -6
BITMAP
C0000000
3FFF8000
07FFE000
03C1F000
03C07000
03C07000
03C0F000
03FFC000
03FF0000
03C78000
03C78000
03C3C000
03C1E000
03C1E000
07E0F000
1FFCF800
7FC37FF0
00007F80
00007E00
0000F000
0001C000
00020000
ENDCHAR
STARTCHAR S
ENCODING 83
SWIDTH 661 0
DWIDTH 16 0
BBX 16 20 0 -3
BITMAP
0001
0782
3FF6
7C7E
701E
F006
FC02
FF82
7FF0
3FFC
0FFE
40FE
203F
201F
301E
7E7E
6FF8
41C0
4000
4000
ENDCHAR
STARTCHAR T
ENCODING 84
SWIDTH 754 0
DWIDTH 18 0
BBX 16 16 1 0
BITMAP
FFFF
FFFF
E3C7
C3C3
C3C3
C3C3
83C2
83C1
03C0
03C0
03C0
03C0
03C0
03C0
07E0
7FFE
ENDCHAR
STARTCHAR U
ENCODING 85
SWIDTH 725 0
DWIDTH 17 0
BBX 21 17 -2 -1
BITMAP
C00FF8
3FF3E0
0F81C0
0F01C0
0F00C0
0F00C0
0F00C0
0F00C0
0F00C0
0F00C0
0F00C0
0F00C0
0F8180
07C380
07FF00
03FE00
003000
ENDCHAR
STARTCHAR V
ENCODING 86
SWIDTH 786 0
DWIDTH 19 0
BBX 25 19 -3 -2
BITMAP
00380000
07E38000
FF80FF80
0F803C00
07C03000
03C06000
03E06000
01E0C000
01F0C000
00F18000
00FB8000
007B0000
007F0000
003E0000
003E0000
001C0000
001C0000
00080000
00080000
ENDCHAR
STARTCHAR W
ENCODING 87
SWIDTH 1026 0
DWIDTH 25 0
BBX 31 18 -3 -2
BITMAP
001C3000
FFF08FF2
1FC081FC
078180C0
07C1C1C0
03C3C180
03E3E180
01E7E300
01E7F300
01FFF300
00FEFE00
00FE7E00
007C7E00
007C3C00
00383C00
00381800
00301800
00100800
ENDCHAR
STARTCHAR X
ENCODING 88
SWIDTH 860 0
DWIDTH 21 0
BBX 25 16 -2 -1
BITMAP
003C0000
7FE7FF00
03C1F800
01E1E000
01F38000
00FF0000
007E0000
003E0000
007F0000
00FF0000
01EF8000
0387C000
0703E000
3F03E000
FFE3FC00
001FFF80
ENDCHAR
STARTCHAR Y
ENCODING 89
SWIDTH 848 0
DWIDTH 20 0
BBX 25 18 -3 -2
BITMAP
00780000
FFE00000
0FC1FF80
03E07C00
01F03000
00F86000
0078C000
003D8000
001F0000
000E0000
000E0000
000E0000
000E0000
000F0000
000F0000
000F0000
003FE000
01FFFC00
ENDCHAR
STARTCHAR Z
ENCODING 90
SWIDTH 685 0
DWIDTH 16 0
BBX 17 15 0 0
BITMAP
003F80
FFFF00
7FFF00
603E00
607C00
20F800
21F000
23F100
27E100
0FC100
0F8300
1F8700
3FF700
7FFF00
FFFF00
ENDCHAR
STARTCHAR bracketleft
ENCODING 91
SWIDTH 380 0
DWIDTH 9 0
BBX 10 23 1 -3
BITMAP
FFC0
FF00
FC00
7000
7000
7000
7000
7000
7000
7000
7000
7000
7000
7000
7000
7000
7000
7000
7000
7000
7000
7C00
7F80
ENDCHAR
STARTCHAR backslash
ENCODING 92
SWIDTH 680 0
DWIDTH 16 0
BBX 16 23 0 -2
BITMAP
1000
7800
F800
7C00
3E00
3E00
1F00
0F00
0F80
0780
07C0
03E0
01E0
01F0
00F0
0078
0078
003C
003E
001E
000F
000E
0004
ENDCHAR
STARTCHAR bracketright
ENCODING 93
SWIDTH 371 0
DWIDTH 9 0
BBX 9 23 -1 -3
BITMAP
FF80
3F80
0F80
0780
0780
0780
0780
0780
0780
0780
0780
0780
0780
0780
0780
0780
0780
0700
0700
0700
0700
1F00
FF00
ENDCHAR
STARTCHAR asciicircum
ENCODING 94
SWIDTH 671 0
DWIDTH 16 0
BBX 16 14 0 7
BITMAP
0100
0180
03C0
07C0
07E0
0FE0
0F70
1F78
3E38
3E1C
7C0E
7C06
F807
7800
ENDCHAR
STARTCHAR underscore
ENCODING 95
SWIDTH 840 0
DWIDTH 20 0
BBX 20 5 0 -3
BITMAP
FFFFF0
FFFFF0
FFFFF0
FFFFF0
0007F0
ENDCHAR
STARTCHAR grave
ENCODING 96
SWIDTH 707 0
DWIDTH 17 0
BBX 5 6 7 14
BITMAP
20
F0
70
70
38
30
ENDCHAR
STARTCHAR a
ENCODING 97
SWIDTH 572 0
DWIDTH 14 0
BBX 15 14 0 -1
BITMAP
1FC0
3FF0
7070
7870
7878
2078
3FF0
7DF0
7070
F070
7DF0
3FF0
00FC
0082
ENDCHAR
STARTCHAR b
ENCODING 98
SWIDTH 723 0
DWIDTH 17 0
BBX 20 22 -3 -4
BITMAP
03C000
FFC000
1FC000
03C000
03C000
03C000
03C000
03C000
03C000
03C000
03C000
03FFC0
03FFE0
0381F0
0380F0
0380F0
0380F0
0381E0
0383E0
07FF80
0FFE00
380000
ENDCHAR
STARTCHAR c
ENCODING 99
SWIDTH 589 0
DWIDTH 14 0
BBX 13 13 1 -1
BITMAP
0780
1FE0
7CF0
7878
F078
F070
F000
F008
F008
F818
7C30
3FF0
1FC0
ENDCHAR
STARTCHAR d
ENCODING 100
SWIDTH 713 0
DWIDTH 17 0
BBX 19 23 1 -4
BITMAP
03F000
007F00
001F00
001F00
001F00
001E00
001E00
001E00
001E00
001E00
1FFE00
3FFE00
783E00
F01C00
F01C00
F01C00
F01C00
F01C00
781C00
3FFC00
0FFC00
001FE0
003C00
ENDCHAR
STARTCHAR e
ENCODING 101
SWIDTH 593 0
DWIDTH 14 0
BBX 13 12 1 -1
BITMAP
0F80
3FE0
7DF0
F070
F078
FF78
FFF8
FF00
F000
7810
7FE0
1FC0
ENDCHAR
STARTCHAR f
ENCODING 102
SWIDTH 507 0
DWIDTH 12 0
BBX 15 33 -1 -10
BITMAP
01F0
03F8
079C
071C
071E
0F1C
0F00
0F00
0F00
0F00
0700
7FF8
7FF8
0780
0780
0780
0780
0780
0380
0380
0380
03C0
03C0
03C0
03C0
03C0
43C0
E3C0
E3C0
E380
7780
7F00
0800
ENDCHAR
STARTCHAR g
ENCODING 103
SWIDTH 606 0
DWIDTH 15 0
BBX 16 27 0 -12
BITMAP
001E
003F
007F
0FEE
1FF4
3878
7838
703C
703C
703C
703C
7838
3C78
1FF0
3FC0
7C00
3FF0
1FF8
3C7C
781E
F01E
F00E
F00E
F01E
783C
3FF8
0FE0
ENDCHAR
STARTCHAR h
ENCODING 104
SWIDTH 678 0
DWIDTH 16 0
BBX 21 23 -3 -2
BITMAP
004000
BFC000
7FC000
07C000
07C000
07C000
03C000
03C000
03C000
03C000
038000
03BC00
03FF80
03C7C0
0381C0
0381E0
0381E0
0381C0
0381C0
07C1C0
1FF1C0
2007F0
0009F8
ENDCHAR
STARTCHAR i
ENCODING 105
SWIDTH 393 0
DWIDTH 9 0
BBX 12 19 -1 0
BITMAP
0700
0F80
0F80
0F80
0700
0000
C000
3F80
0F80
0780
0780
0780
0700
0700
0700
0700
0700
1F80
7FF0
ENDCHAR
STARTCHAR j
ENCODING 106
SWIDTH 385 0
DWIDTH 9 0
BBX 10 26 -2 -8
BITMAP
0600
0F00
1F00
0F00
0F00
0000
0080
7F80
0F80
0380
0380
03C0
03C0
03C0
03C0
03C0
03C0
01C0
01C0
01C0
61C0
F1C0
F1C0
61C0
7F80
3F00
ENDCHAR
STARTCHAR k
ENCODING 107
SWIDTH 749 0
DWIDTH 18 0
BBX 24 21 -3 -2
BITMAP
FFC000
07C000
07C000
03D002
03CFFC
03C3E0
03C380
03C700
03CE00
03FC00
03FE00
03EE00
03CF00
03C700
03C380
03C3C0
03C1C0
07E0E0
1FFCFC
2001FF
000780
ENDCHAR
STARTCHAR l
ENCODING 108
SWIDTH 369 0
DWIDTH 9 0
BBX 13 23 -3 -2
BITMAP
FFC0
1FC0
07C0
03C0
03C0
03C0
03C0
03C0
03C0
03C0
03C0
03C0
03C0
03C0
03C0
03C0
0380
0380
0380
0380
03C0
0FF0
3FE8
ENDCHAR
STARTCHAR m
ENCODING 109
SWIDTH 990 0
DWIDTH 24 0
BBX 28 12 -2 1
BITMAP
079C1C00
FFFF7E00
1FFFFF00
0787C700
07878780
07038780
07038700
07030700
03030700
1FE33FC0
200FC030
00702000
ENDCHAR
STARTCHAR n
ENCODING 110
SWIDTH 643 0
DWIDTH 15 0
BBX 19 12 -2 1
BITMAP
079C00
FFFF00
1FFF00
078780
078780
070380
070380
070380
030300
1FE300
200FC0
007020
ENDCHAR
STARTCHAR o
ENCODING 111
SWIDTH 705 0
DWIDTH 17 0
BBX 17 11 0 0
BITMAP
0FF800
3F7E00
780F00
780F00
F00780
F00780
F00780
780F00
7C1F00
3FFC00
0FF000
ENDCHAR
STARTCHAR p
ENCODING 112
SWIDTH 723 0
DWIDTH 17 0
BBX 20 19 -3 -6
BITMAP
FFC000
1FC400
07FF80
03E7E0
03C0F0
03C0F0
03C070
03C0F0
03C0F0
03C1E0
03FFE0
03FF80
03C000
03C000
03C000
03C000
01C000
0FF800
7FE600
ENDCHAR
STARTCHAR q
ENCODING 113
SWIDTH 682 0
DWIDTH 16 0
BBX 20 19 0 -5
BITMAP
001FF0
001F80
0FFE00
3FFE00
7C1E00
701E00
F01C00
F01C00
F01C00
781C00
7C3C00
3FFC00
0FDC00
001C00
001C00
003C00
003C00
007E00
03FFE0
ENDCHAR
STARTCHAR r
ENCODING 114
SWIDTH 595 0
DWIDTH 14 0
BBX 17 14 -2 0
BITMAP
03CF00
FFFF80
1FFF80
03C780
03C300
03C000
03C000
03C000
038000
038000
038000
03E000
0FFE00
3F8000
ENDCHAR
STARTCHAR s
ENCODING 115
SWIDTH 533 0
DWIDTH 13 0
BBX 13 16 0 -1
BITMAP
0010
1F10
3FD0
70F0
F070
F830
7E10
3FC0
1FF0
47F0
40F8
6078
7878
7FF0
4FC0
8000
ENDCHAR
STARTCHAR t
ENCODING 116
SWIDTH 422 0
DWIDTH 10 0
BBX 11 23 0 -1
BITMAP
0400
0600
0E00
0E00
0C00
1C00
FE00
FFE0
3FE0
3C00
3C00
3C00
3C00
3C00
3800
3800
3840
3840
3840
3CC0
3FC0
1F80
0E00
ENDCHAR
STARTCHAR u
ENCODING 117
SWIDTH 614 0
DWIDTH 15 0
BBX 19 13 -2 -1
BITMAP
FEC000
3E3F00
0E0F00
1E0700
1E0700
1E0F00
1E0F00
0E0E00
0E0E00
0F1E00
0FFE00
07FFE0
000F00
ENDCHAR
STARTCHAR v
ENCODING 118
SWIDTH 639 0
DWIDTH 15 0
BBX 21 15 -3 -2
BITMAP
01F000
FFA000
1F1FF8
0787E0
078300
03C300
03C600
01EE00
01EC00
00FC00
007800
007800
003000
003000
001000
ENDCHAR
STARTCHAR w
ENCODING 119
SWIDTH 805 0
DWIDTH 19 0
BBX 26 13 -3 0
BITMAP
FFF4FFC0
1F041E00
07861800
078E3800
07CF3000
03DF7000
03FF6000
01F7E000
01F3C000
00F3C000
00E18000
00618000
00408000
ENDCHAR
STARTCHAR x
ENCODING 120
SWIDTH 717 0
DWIDTH 17 0
BBX 23 15 -3 -1
BITMAP
000C00
03F000
FFDFFC
03C7E0
01E380
01F700
00FE00
007C00
007C00
00FE00
01EF00
078780
3FF3C0
000FFE
001F00
ENDCHAR
STARTCHAR y
ENCODING 121
SWIDTH 655 0
DWIDTH 16 0
BBX 16 24 -1 -11
BITMAP
8000
71F0
3F3F
1E1F
1E0F
3E0F
3C0F
3C0F
3C0F
3E0F
1FFF
0FFF
030F
000F
000F
000E
001E
181E
3C1E
3C1E
383C
1E7C
0FF0
03C0
ENDCHAR
STARTCHAR z
ENCODING 122
SWIDTH 549 0
DWIDTH 13 0
BBX 14 13 0 0
BITMAP
000C
FFF8
7FF8
61F0
61E0
63C0
47C8
4F88
1F18
1E18
3E38
7FF8
FFF8
ENDCHAR
STARTCHAR braceleft
ENCODING 123
SWIDTH 708 0
DWIDTH 17 0
BBX 13 23 2 -3
BITMAP
0FF8
0FE0
0F80
0F00
0F00
0F00
0F00
0F00
0F00
0F00
0F00
FF00
3F00
0F00
0F00
0F00
0F00
0F00
0F00
0F00
0F00
07C0
07F8
ENDCHAR
STARTCHAR bar
ENCODING 124
SWIDTH 304 0
DWIDTH 7 0
BBX 4 22 2 -2
BITMAP
F0
F0
F0
F0
F0
F0
F0
F0
F0
F0
F0
E0
E0
E0
E0
E0
E0
E0
E0
E0
E0
E0
ENDCHAR
STARTCHAR braceright
ENCODING 125
SWIDTH 517 0
DWIDTH 12 0
BBX 13 23 0 -3
BITMAP
FF80
3F80
0F80
0780
0780
0780
0780
0780
0780
0780
0780
07F8
07E0
0780
0780
0780
0780
0380
0380
0380
0780
1F80
7F80
ENDCHAR
STARTCHAR asciitilde
ENCODING 126
SWIDTH 466 0
DWIDTH 11 0
BBX 11 5 0 5
BITMAP
3820
FFE0
FFE0
FFE0
8180
ENDCHAR
STARTCHAR uni00A0
ENCODING 160
SWIDTH 320 0
DWIDTH 8 0
BBX 1 1 0 0
BITMAP
00
ENDCHAR
STARTCHAR exclamdown
ENCODING 161
SWIDTH 305 0
DWIDTH 7 0
BBX 7 20 0 -7
BITMAP
1E
1E
1E
0C
00
1C
1C
1C
3C
3C
3C
3C
3C
7C
7C
78
78
78
78
F8
ENDCHAR
STARTCHAR cent
ENCODING 162
SWIDTH 417 0
DWIDTH 10 0
BBX 10 19 0 -2
BITMAP
0E00
0E00
0E00
0E00
3F80
71C0
E1C0
E1C0
E000
E000
E040
E040
F040
7F80
3F00
0E00
0E00
0E00
0E00
ENDCHAR
STARTCHAR sterling
ENCODING 163
SWIDTH 658 0
DWIDTH 16 0
BBX 16 18 0 -1
BITMAP
0001
03C2
07FE
1FFE
1E1E
1C0E
1C06
FFE6
FFE2
8E03
0E01
FFE1
FFE1
0E23
0E03
1FFF
3FFF
3FFF
ENDCHAR
STARTCHAR currency
ENCODING 164
SWIDTH 358 0
DWIDTH 9 0
BBX 9 9 0 4
BITMAP
4200
FF00
7F80
7600
6300
7E00
7F00
E380
4200
ENDCHAR
STARTCHAR yen
ENCODING 165
SWIDTH 796 0
DWIDTH 19 0
BBX 23 16 -3 0
BITMAP
01E000
FF8402
0F83FC
03C0E0
01E180
00E300
007600
007C00
013800
01FF80
001C00
01FF80
007F80
003C00
007F00
07FFF0
ENDCHAR
STARTCHAR brokenbar
ENCODING 166
SWIDTH 304 0
DWIDTH 7 0
BBX 4 22 2 -2
BITMAP
F0
F0
F0
F0
F0
F0
F0
F0
80
00
00
00
00
E0
E0
E0
E0
E0
E0
E0
E0
E0
ENDCHAR
STARTCHAR section
ENCODING 167
SWIDTH 646 0
DWIDTH 16 0
BBX 14 29 1 -7
BITMAP
0008
1F08
3FC8
70F8
E078
E038
F010
F808
7F00
7FC0
3FF0
7FF8
F1F8
E07C
E03C
F838
FE78
7FF0
3FE0
1FF0
87F8
80F8
407C
E03C
F038
FFF8
9FE0
8000
8000
ENDCHAR
STARTCHAR dieresis
ENCODING 168
SWIDTH 708 0
DWIDTH 17 0
BBX 7 3 5 20
BITMAP
44
EE
EE
ENDCHAR
STARTCHAR copyright
ENCODING 169
SWIDTH 700 0
DWIDTH 17 0
BBX 17 15 0 1
BITMAP
07F000
1FFC00
3C0E00
71C700
E73300
E63380
C60380
CE0380
E61380
E61300
63E700
708600
3C1E00
1FF800
07E000
ENDCHAR
STARTCHAR ordfeminine
ENCODING 170
SWIDTH 399 0
DWIDTH 10 0
BBX 11 10 0 9
BITMAP
3E00
7F00
E700
E300
3F00
FF00
E700
FF00
7F80
07E0
ENDCHAR
STARTCHAR guillemotleft
ENCODING 171
SWIDTH 424 0
DWIDTH 10 0
BBX 10 13 0 -1
BITMAP
0840
18C0
19C0
3980
7380
7700
E700
7700
7380
3980
18C0
08C0
0840
ENDCHAR
STARTCHAR logicalnot
ENCODING 172
SWIDTH 541 0
DWIDTH 13 0
BBX 14 13 0 1
BITMAP
8000
8008
8008
C018
FFF0
FFF0
FFF0
C030
8030
8030
0030
00F8
0004
ENDCHAR
STARTCHAR sfthyphen
ENCODING 173
SWIDTH 530 0
DWIDTH 13 0
BBX 13 4 0 6
BITMAP
FFF8
FFF8
FFF8
FF80
ENDCHAR
STARTCHAR registered
ENCODING 174
SWIDTH 700 0
DWIDTH 17 0
BBX 17 15 0 1
BITMAP
07F000
1FFC00
3C1E00
700700
6FBF00
E3FB80
E19380
C18380
E18380
E18380
61E300
761700
381E00
1FFC00
07F000
ENDCHAR
STARTCHAR macron
ENCODING 175
SWIDTH 705 0
DWIDTH 17 0
BBX 7 4 6 17
BITMAP
FE
FE
FE
FE
ENDCHAR
STARTCHAR degree
ENCODING 176
SWIDTH 364 0
DWIDTH 9 0
BBX 7 6 1 11
BITMAP
78
7C
CC
CE
7C
78
ENDCHAR
STARTCHAR plusminus
ENCODING 177
SWIDTH 607 0
DWIDTH 15 0
BBX 14 15 0 0
BITMAP
0780
0780
0780
7FF8
7FFC
7FFC
FFFC
0380
0380
0380
0000
7FFC
7FFC
7FFC
7FF0
ENDCHAR
STARTCHAR twosuperior
ENCODING 178
SWIDTH 440 0
DWIDTH 11 0
BBX 10 13 0 9
BITMAP
4000
5F00
7F80
71C0
61C0
61C0
43C0
4FC0
5E40
78C0
70C0
FFC0
FFC0
ENDCHAR
STARTCHAR threesuperior
ENCODING 179
SWIDTH 442 0
DWIDTH 11 0
BBX 10 15 0 7
BITMAP
8000
4000
5F00
7FC0
71C0
61C0
43C0
0F80
4FC0
41C0
61C0
7BC0
7F80
8E00
8000
ENDCHAR
STARTCHAR acute
ENCODING 180
SWIDTH 694 0
DWIDTH 17 0
BBX 5 5 7 18
BITMAP
78
70
70
E0
E0
ENDCHAR
STARTCHAR mu
ENCODING 181
SWIDTH 1000 0
DWIDTH 24 0
BBX 19 18 0 -6
BITMAP
FF4000
3E3F80
0E0F00
0E0700
0E0700
0E0700
0E0700
0E0700
0E0E00
0F0E00
0FFE00
0FFFE0
0E0F00
0E0000
0E0000
0E0000
0E0000
0E0000
ENDCHAR
STARTCHAR paragraph
ENCODING 182
SWIDTH 782 0
DWIDTH 19 0
BBX 20 17 0 -1
BITMAP
01FFF0
3FFF80
7FFE00
F1CC00
E1CC00
E1CC00
79CC00
3FFC00
07FC00
01CC00
01CC00
01CC00
01DC00
01DC00
01FF00
07FFC0
7FE020
ENDCHAR
STARTCHAR periodcentered
ENCODING 183
SWIDTH 226 0
DWIDTH 5 0
BBX 5 4 0 7
BITMAP
70
F8
F8
70
ENDCHAR
STARTCHAR cedilla
ENCODING 184
SWIDTH 780 0
DWIDTH 19 0
BBX 5 7 7 -4
BITMAP
60
60
F0
38
18
F8
F0
ENDCHAR
STARTCHAR onesuperior
ENCODING 185
SWIDTH 390 0
DWIDTH 9 0
BBX 9 13 0 8
BITMAP
0200
3E00
FE00
0E00
0E00
0E00
0E00
0E00
0E00
0E00
0E00
1F00
7F80
ENDCHAR
STARTCHAR ordmasculine
ENCODING 186
SWIDTH 449 0
DWIDTH 11 0
BBX 11 8 0 10
BITMAP
7F80
F1C0
E0E0
E0E0
E0E0
E1E0
7FC0
1F00
ENDCHAR
STARTCHAR guillemotright
ENCODING 187
SWIDTH 415 0
DWIDTH 10 0
BBX 10 13 0 -1
BITMAP
4400
C600
6600
7300
7380
3BC0
39C0
3B80
7380
6700
E600
C600
4400
ENDCHAR
STARTCHAR onequarter
ENCODING 188
SWIDTH 918 0
DWIDTH 22 0
BBX 22 24 0 -3
BITMAP
020040
3E00F0
FE00E0
0E01E0
0E01C0
0E03C0
0E0780
0E0700
0E0F00
0E0E10
0E1C20
1F3C60
7FB8E0
0079E0
0071E4
00E3E8
00E7E8
01CEF8
039FF8
03A0E8
0700E8
0700E8
0E0FFC
040000
ENDCHAR
STARTCHAR onehalf
ENCODING 189
SWIDTH 1007 0
DWIDTH 24 0
BBX 24 24 0 -3
BITMAP
020040
3E00F0
FE00E0
0E01E0
0E01C0
0E03C0
0E0780
0E0700
0E0F00
0E0E00
0E1C00
1F3E00
7FB938
0079FE
0071CF
00E187
00E107
01C10E
03813F
038179
0701E3
0703C7
0E03FF
0403FE
ENDCHAR
STARTCHAR threequarters
ENCODING 190
SWIDTH 936 0
DWIDTH 22 0
BBX 22 25 0 -3
BITMAP
800000
400060
5F0070
7FC0F0
71C0E0
61C1E0
43C3C0
0F8380
4FC780
41C700
61CE10
7BDE30
7F9C30
8E3C70
8038F0
0071F4
0073F4
00E77C
01E678
01CFF8
039068
038068
0700F4
0E07FC
060800
ENDCHAR
STARTCHAR questiondown
ENCODING 191
SWIDTH 568 0
DWIDTH 14 0
BBX 14 22 0 -8
BITMAP
0070
00F8
00F8
0078
0000
00C0
00E0
01E0
01E0
3FE0
7FE0
F800
F000
F000
F004
F004
F808
7C18
3FF8
07F8
0010
0008
ENDCHAR
STARTCHAR Agrave
ENCODING 192
SWIDTH 788 0
DWIDTH 19 0
BBX 28 29 -4 -5
BITMAP
00080000
003C0000
001C0000
001C0000
000E0000
000C0000
00000000
00000000
03FE0000
007E0000
001F0000
000F0000
001F8000
001F8000
0037C000
0033C000
0063E000
0061E000
00FFF000
00FFF000
01E0F800
0380F800
03007C00
0F807C00
FFC03E00
00F03F80
00003FF0
00007E00
0001E000
ENDCHAR
STARTCHAR Aacute
ENCODING 193
SWIDTH 788 0
DWIDTH 19 0
BBX 28 28 -4 -5
BITMAP
00060000
00070000
000E0000
000E0000
000C0000
00000000
00000000
03FE0000
007E0000
001F0000
000F0000
001F8000
001F8000
0037C000
0033C000
0063E000
0061E000
00FFF000
00FFF000
01E0F800
0380F800
03007C00
0F807C00
FFC03E00
00F03F80
00003FF0
00007E00
0001E000
ENDCHAR
STARTCHAR Acircumflex
ENCODING 194
SWIDTH 788 0
DWIDTH 19 0
BBX 28 28 -4 -5
BITMAP
00040000
000E0000
001F0000
003F8000
0071C000
00208000
00000000
03FE0000
007E0000
001F0000
000F0000
001F8000
001F8000
0037C000
0033C000
0063E000
0061E000
00FFF000
00FFF000
01E0F800
0380F800
03007C00
0F807C00
FFC03E00
00F03F80
00003FF0
00007E00
0001E000
ENDCHAR
STARTCHAR Atilde
ENCODING 195
SWIDTH 788 0
DWIDTH 19 0
BBX 28 27 -4 -5
BITMAP
003C8000
003F8000
003F8000
00230000
00000000
00000000
03FE0000
007E0000
001F0000
000F0000
001F8000
001F8000
0037C000
0033C000
0063E000
0061E000
00FFF000
00FFF000
01E0F800
0380F800
03007C00
0F807C00
FFC03E00
00F03F80
00003FF0
00007E00
0001E000
ENDCHAR
STARTCHAR Adieresis
ENCODING 196
SWIDTH 788 0
DWIDTH 19 0
BBX 28 26 -4 -5
BITMAP
00110000
003B8000
003B8000
00000000
00000000
03FE0000
007E0000
001F0000
000F0000
001F8000
001F8000
0037C000
0033C000
0063E000
0061E000
00FFF000
00FFF000
01E0F800
0380F800
03007C00
0F807C00
FFC03E00
00F03F80
00003FF0
00007E00
0001E000
ENDCHAR
STARTCHAR Aring
ENCODING 197
SWIDTH 788 0
DWIDTH 19 0
BBX 28 25 -4 -5
BITMAP
000E0000
001B0000
001B0000
001F0000
03FE0000
007E0000
001F0000
000F0000
001F8000
001F8000
0037C000
0033C000
0063E000
0061E000
00FFF000
00FFF000
01E0F800
0380F800
03007C00
0F807C00
FFC03E00
00F03F80
00003FF0
00007E00
0001E000
ENDCHAR
STARTCHAR AE
ENCODING 198
SWIDTH 1019 0
DWIDTH 24 0
BBX 30 19 -6 -2
BITMAP
008FFFFC
007FFFF8
001FF018
000FF018
0006F088
000EF088
001CF188
0018F184
0038F380
0070FF88
0060FF88
00FFF388
00FFF188
0180F098
0380F098
0700F3F8
1F87FFF8
FFDFE000
00300000
ENDCHAR
STARTCHAR Ccedilla
ENCODING 199
SWIDTH 766 0
DWIDTH 18 0
BBX 18 26 0 -8
BITMAP
000040
000040
07FCC0
0FFFC0
1F8780
3E0380
7C0180
780080
780080
F80080
F80000
780000
780080
7C0080
7C0080
3E0180
1F8780
0FFF80
03FC40
00C040
018000
03E000
007000
013000
03F000
01E000
ENDCHAR
STARTCHAR Egrave
ENCODING 200
SWIDTH 781 0
DWIDTH 19 0
BBX 20 26 -2 -1
BITMAP
001000
007000
007800
003800
003800
001000
000000
000000
00FFF0
FFFFF0
0FC070
03C070
03C230
03C230
03C610
03C610
03CE00
03FC20
03FC20
03CC20
03C420
03C460
03C260
03CFE0
1FFFE0
FF8000
ENDCHAR
STARTCHAR Eacute
ENCODING 201
SWIDTH 781 0
DWIDTH 19 0
BBX 20 24 -2 -1
BITMAP
001C00
001E00
001C00
003800
003800
000000
00FFF0
FFFFF0
0FC070
03C070
03C230
03C230
03C610
03C610
03CE00
03FC20
03FC20
03CC20
03C420
03C460
03C260
03CFE0
1FFFE0
FF8000
ENDCHAR
STARTCHAR Ecircumflex
ENCODING 202
SWIDTH 781 0
DWIDTH 19 0
BBX 20 25 -2 -1
BITMAP
003000
007800
007C00
00FC00
01CE00
010200
000000
00FFF0
FFFFF0
0FC070
03C070
03C230
03C230
03C610
03C610
03CE00
03FC20
03FC20
03CC20
03C420
03C460
03C260
03CFE0
1FFFE0
FF8000
ENDCHAR
STARTCHAR Edieresis
ENCODING 203
SWIDTH 781 0
DWIDTH 19 0
BBX 20 23 -2 -1
BITMAP
004400
00EE00
00EE00
000000
000000
00FFF0
FFFFF0
0FC070
03C070
03C230
03C230
03C610
03C610
03CE00
03FC20
03FC20
03CC20
03C420
03C460
03C260
03CFE0
1FFFE0
FF8000
ENDCHAR
STARTCHAR Igrave
ENCODING 204
SWIDTH 445 0
DWIDTH 11 0
BBX 15 27 -2 -2
BITMAP
0100
0F00
0700
0380
0380
0100
0000
0000
F606
3FF8
07C0
03C0
03C0
03C0
03C0
03C0
03C0
03C0
03C0
03C0
03C0
03C0
03C0
03C0
0380
07E0
7FFE
ENDCHAR
STARTCHAR Iacute
ENCODING 205
SWIDTH 445 0
DWIDTH 11 0
BBX 15 25 -2 -2
BITMAP
00C0
01E0
01C0
01C0
0380
0000
F606
3FF8
07C0
03C0
03C0
03C0
03C0
03C0
03C0
03C0
03C0
03C0
03C0
03C0
03C0
03C0
0380
07E0
7FFE
ENDCHAR
STARTCHAR Icircumflex
ENCODING 206
SWIDTH 445 0
DWIDTH 11 0
BBX 15 26 -2 -2
BITMAP
0180
0380
07C0
0FE0
1C70
0820
0000
F606
3FF8
07C0
03C0
03C0
03C0
03C0
03C0
03C0
03C0
03C0
03C0
03C0
03C0
03C0
03C0
0380
07E0
7FFE
ENDCHAR
STARTCHAR Idieresis
ENCODING 207
SWIDTH 445 0
DWIDTH 11 0
BBX 15 24 -2 -2
BITMAP
0440
0EE0
0EE0
0000
0000
F606
3FF8
07C0
03C0
03C0
03C0
03C0
03C0
03C0
03C0
03C0
03C0
03C0
03C0
03C0
03C0
0380
07E0
7FFE
ENDCHAR
STARTCHAR Eth
ENCODING 208
SWIDTH 1000 0
DWIDTH 24 0
BBX 23 17 0 -1
BITMAP
FFFF80
0FFFE0
03F1F8
01F07C
01E03C
01E03E
01E01E
3FFE1E
3FFE1E
3FFE1E
01E01E
01E03C
01E03C
01E078
01FFF0
07FFC0
3F0000
ENDCHAR
STARTCHAR Ntilde
ENCODING 209
SWIDTH 840 0
DWIDTH 20 0
BBX 25 24 -2 -1
BITMAP
00710000
007F0000
007F0000
008E0000
00000000
00100180
FFCFFE00
1FE1F800
03F07000
03F07000
03F87000
03FC7000
037E7000
033F7000
031FF000
030FF000
0307E000
0303E000
0303E000
0301E000
0780E000
1FF06000
FFFF2000
00001000
ENDCHAR
STARTCHAR Ograve
ENCODING 210
SWIDTH 808 0
DWIDTH 19 0
BBX 19 23 0 0
BITMAP
002000
01E000
00E000
007000
007000
002000
000000
000000
00F000
0FFE00
1FFF80
3E07C0
7C03C0
7803E0
7803E0
F803E0
7803E0
7803E0
7C03C0
3C07C0
3E0F80
1FFF00
07FC00
ENDCHAR
STARTCHAR Oacute
ENCODING 211
SWIDTH 808 0
DWIDTH 19 0
BBX 19 22 0 0
BITMAP
003000
007800
007000
007000
00E000
000000
000000
00F000
0FFE00
1FFF80
3E07C0
7C03C0
7803E0
7803E0
F803E0
7803E0
7803E0
7C03C0
3C07C0
3E0F80
1FFF00
07FC00
ENDCHAR
STARTCHAR Ocircumflex
ENCODING 212
SWIDTH 808 0
DWIDTH 19 0
BBX 19 22 0 0
BITMAP
006000
00E000
01F000
01F800
031C00
020800
000000
00F000
0FFE00
1FFF80
3E07C0
7C03C0
7803E0
7803E0
F803E0
7803E0
7803E0
7C03C0
3C07C0
3E0F80
1FFF00
07FC00
ENDCHAR
STARTCHAR Otilde
ENCODING 213
SWIDTH 808 0
DWIDTH 19 0
BBX 19 21 0 0
BITMAP
01C400
01FC00
01FC00
023800
000000
000000
00F000
0FFE00
1FFF80
3E07C0
7C03C0
7803E0
7803E0
F803E0
7803E0
7803E0
7C03C0
3C07C0
3E0F80
1FFF00
07FC00
ENDCHAR
STARTCHAR Odieresis
ENCODING 214
SWIDTH 808 0
DWIDTH 19 0
BBX 19 20 0 0
BITMAP
011000
03B800
039800
000000
000000
00F000
0FFE00
1FFF80
3E07C0
7C03C0
7803E0
7803E0
F803E0
7803E0
7803E0
7C03C0
3C07C0
3E0F80
1FFF00
07FC00
ENDCHAR
STARTCHAR multiply
ENCODING 215
SWIDTH 556 0
DWIDTH 13 0
BBX 13 13 0 2
BITMAP
1020
3060
78F0
FDF8
3FF0
1FE0
0FC0
0FC0
1FE0
3FF0
F8F8
7070
2020
ENDCHAR
STARTCHAR Oslash
ENCODING 216
SWIDTH 808 0
DWIDTH 19 0
BBX 19 20 0 -3
BITMAP
000600
000780
00FF00
0FFF00
1FFF80
3E3FC0
7C3FC0
787BE0
787BE0
F8F3E0
F8E3E0
79E3E0
7DC3C0
3F87C0
3F8F80
1FFF00
0FFC00
0E0000
1C0000
040000
ENDCHAR
STARTCHAR Ugrave
ENCODING 217
SWIDTH 725 0
DWIDTH 17 0
BBX 21 24 -2 -1
BITMAP
003000
00F000
007000
007800
003800
003000
000000
C00FF8
3FF3E0
0F81C0
0F01C0
0F00C0
0F00C0
0F00C0
0F00C0
0F00C0
0F00C0
0F00C0
0F00C0
0F8180
07C380
07FF00
03FE00
003000
ENDCHAR
STARTCHAR Uacute
ENCODING 218
SWIDTH 725 0
DWIDTH 17 0
BBX 21 24 -2 -1
BITMAP
003800
003C00
003800
007000
007000
000000
000000
C00FF8
3FF3E0
0F81C0
0F01C0
0F00C0
0F00C0
0F00C0
0F00C0
0F00C0
0F00C0
0F00C0
0F00C0
0F8180
07C380
07FF00
03FE00
003000
ENDCHAR
STARTCHAR Ucircumflex
ENCODING 219
SWIDTH 725 0
DWIDTH 17 0
BBX 21 24 -2 -1
BITMAP
003000
007800
007C00
00FC00
01CE00
010200
000000
C00FF8
3FF3E0
0F81C0
0F01C0
0F00C0
0F00C0
0F00C0
0F00C0
0F00C0
0F00C0
0F00C0
0F00C0
0F8180
07C380
07FF00
03FE00
003000
ENDCHAR
STARTCHAR Udieresis
ENCODING 220
SWIDTH 725 0
DWIDTH 17 0
BBX 21 22 -2 -1
BITMAP
004400
00EE00
00EE00
000000
000000
C00FF8
3FF3E0
0F81C0
0F01C0
0F00C0
0F00C0
0F00C0
0F00C0
0F00C0
0F00C0
0F00C0
0F00C0
0F8180
07C380
07FF00
03FE00
003000
ENDCHAR
STARTCHAR Yacute
ENCODING 221
SWIDTH 848 0
DWIDTH 20 0
BBX 25 24 -3 -2
BITMAP
00038000
0003C000
00038000
00070000
00070000
00000000
00780000
FFE00000
0FC1FF80
03E07C00
01F03000
00F86000
0078C000
003D8000
001F0000
000E0000
000E0000
000E0000
000E0000
000F0000
000F0000
000F0000
003FE000
01FFFC00
ENDCHAR
STARTCHAR Thorn
ENCODING 222
SWIDTH 745 0
DWIDTH 18 0
BBX 20 16 -2 -1
BITMAP
FFFC00
0FE000
078000
07FF00
07FFC0
0781F0
078070
078070
0780F0
03DFC0
03FF00
03C000
03C000
07C000
1FF800
7FFE00
ENDCHAR
STARTCHAR germandbls
ENCODING 223
SWIDTH 986 0
DWIDTH 24 0
BBX 25 32 -1 -10
BITMAP
00FE0000
01FF0000
03C38000
0381C000
0701C000
0701C000
0701C000
0701C000
0701C000
0703C000
7F038000
7F078000
07870000
078F0000
078F0000
078F0000
078FC000
0387F000
0383FC00
0389FF00
03C43F80
03C60F80
03C70780
03C7CF00
03C7FE00
63C87800
E3C80000
E3C00000
E3800000
77800000
3F000000
08000000
ENDCHAR
STARTCHAR agrave
ENCODING 224
SWIDTH 572 0
DWIDTH 14 0
BBX 15 22 0 -1
BITMAP
00C0
03C0
01C0
01E0
00E0
00C0
0000
0000
1FC0
3FF0
7070
7870
7878
2078
3FF0
7DF0
7070
F070
7DF0
3FF0
00FC
0082
ENDCHAR
STARTCHAR aacute
ENCODING 225
SWIDTH 572 0
DWIDTH 14 0
BBX 15 21 0 -1
BITMAP
00C0
01E0
01C0
01C0
0380
0000
0000
1FC0
3FF0
7070
7870
7878
2078
3FF0
7DF0
7070
F070
7DF0
3FF0
00FC
0082
ENDCHAR
STARTCHAR acircumflex
ENCODING 226
SWIDTH 572 0
DWIDTH 14 0
BBX 15 22 0 -1
BITMAP
0180
03C0
07C0
07E0
0C70
0820
0000
0000
1FC0
3FF0
7070
7870
7878
2078
3FF0
7DF0
7070
F070
7DF0
3FF0
00FC
0082
ENDCHAR
STARTCHAR atilde
ENCODING 227
SWIDTH 572 0
DWIDTH 14 0
BBX 15 20 0 -1
BITMAP
0710
0FF0
0FF0
08E0
0000
0000
1FC0
3FF0
7070
7870
7878
2078
3FF0
7DF0
7070
F070
7DF0
3FF0
00FC
0082
ENDCHAR
STARTCHAR adieresis
ENCODING 228
SWIDTH 572 0
DWIDTH 14 0
BBX 15 19 0 -1
BITMAP
0440
0EE0
0CE0
0000
0000
1FC0
3FF0
7070
7870
7878
2078
3FF0
7DF0
7070
F070
7DF0
3FF0
00FC
0082
ENDCHAR
STARTCHAR aring
ENCODING 229
SWIDTH 572 0
DWIDTH 14 0
BBX 15 19 0 -1
BITMAP
0180
03C0
0640
03C0
03C0
1FC0
3FF0
7070
7870
7878
2078
3FF0
7DF0
7070
F070
7DF0
3FF0
00FC
0082
ENDCHAR
STARTCHAR ae
ENCODING 230
SWIDTH 1022 0
DWIDTH 25 0
BBX 24 14 0 -1
BITMAP
1FC000
3FE3FC
70F7FE
707F0E
707E0F
207E07
3FFFFF
79FE00
F0FE01
F0FF86
FBF7FC
7FE1F0
00FC00
018200
ENDCHAR
STARTCHAR ccedilla
ENCODING 231
SWIDTH 589 0
DWIDTH 14 0
BBX 13 20 1 -8
BITMAP
0780
1FE0
7CF0
7878
F078
F070
F000
F008
F008
F818
7C30
3FF0
1FC0
0600
0600
0F80
0180
0980
0F80
0F00
ENDCHAR
STARTCHAR egrave
ENCODING 232
SWIDTH 593 0
DWIDTH 14 0
BBX 13 20 1 -1
BITMAP
0100
0780
0380
0380
01C0
0180
0000
0000
0F80
3FE0
7DF0
F070
F078
FF78
FFF8
FF00
F000
7810
7FE0
1FC0
ENDCHAR
STARTCHAR eacute
ENCODING 233
SWIDTH 593 0
DWIDTH 14 0
BBX 13 19 1 -1
BITMAP
0180
03C0
0380
0300
0700
0000
0000
0F80
3FE0
7DF0
F070
F078
FF78
FFF8
FF00
F000
7810
7FE0
1FC0
ENDCHAR
STARTCHAR ecircumflex
ENCODING 234
SWIDTH 593 0
DWIDTH 14 0
BBX 13 19 1 -1
BITMAP
0300
0780
0F80
0FC0
18E0
1040
0000
0F80
3FE0
7DF0
F070
F078
FF78
FFF8
FF00
F000
7810
7FE0
1FC0
ENDCHAR
STARTCHAR edieresis
ENCODING 235
SWIDTH 593 0
DWIDTH 14 0
BBX 13 17 1 -1
BITMAP
08C0
1CE0
0CC0
0000
0000
0F80
3FE0
7DF0
F070
F078
FF78
FFF8
FF00
F000
7810
7FE0
1FC0
ENDCHAR
STARTCHAR igrave
ENCODING 236
SWIDTH 393 0
DWIDTH 9 0
BBX 12 21 -1 0
BITMAP
0200
1E00
0E00
0700
0700
0200
0000
0000
C000
3F80
0F80
0780
0780
0780
0700
0700
0700
0700
0700
1F80
7FF0
ENDCHAR
STARTCHAR iacute
ENCODING 237
SWIDTH 393 0
DWIDTH 9 0
BBX 12 20 -1 0
BITMAP
0380
03C0
0380
0700
0700
0000
0000
C000
3F80
0F80
0780
0780
0780
0700
0700
0700
0700
0700
1F80
7FF0
ENDCHAR
STARTCHAR icircumflex
ENCODING 238
SWIDTH 393 0
DWIDTH 9 0
BBX 12 21 -1 0
BITMAP
0200
0700
0F80
1FC0
38E0
1040
0000
0000
C000
3F80
0F80
0780
0780
0780
0700
0700
0700
0700
0700
1F80
7FF0
ENDCHAR
STARTCHAR idieresis
ENCODING 239
SWIDTH 393 0
DWIDTH 9 0
BBX 12 18 -1 0
BITMAP
0840
1CE0
1CC0
0000
0000
C000
3F80
0F80
0780
0780
0780
0700
0700
0700
0700
0700
1F80
7FF0
ENDCHAR
STARTCHAR eth
ENCODING 240
SWIDTH 672 0
DWIDTH 16 0
BBX 16 22 0 -2
BITMAP
2000
1C04
071E
03BC
01F0
03F0
07F0
0F38
063C
001E
001E
1FFE
3FFF
781F
F00F
F00F
F00F
F00F
F00F
781E
3FFC
0FF0
ENDCHAR
STARTCHAR ntilde
ENCODING 241
SWIDTH 643 0
DWIDTH 15 0
BBX 19 18 -2 1
BITMAP
01E400
01FC00
01FC00
011C00
000000
000000
079C00
FFFF00
1FFF00
078780
078780
070380
070380
070380
030300
1FE300
200FC0
007020
ENDCHAR
STARTCHAR ograve
ENCODING 242
SWIDTH 705 0
DWIDTH 17 0
BBX 17 19 0 0
BITMAP
004000
01C000
01E000
00E000
00E000
004000
000000
000000
0FF800
3F7E00
780F00
780F00
F00780
F00780
F00780
780F00
7C1F00
3FFC00
0FF000
ENDCHAR
STARTCHAR oacute
ENCODING 243
SWIDTH 705 0
DWIDTH 17 0
BBX 17 18 0 0
BITMAP
00F000
00E000
00E000
01C000
01C000
000000
000000
0FF800
3F7E00
780F00
780F00
F00780
F00780
F00780
780F00
7C1F00
3FFC00
0FF000
ENDCHAR
STARTCHAR ocircumflex
ENCODING 244
SWIDTH 705 0
DWIDTH 17 0
BBX 17 19 0 0
BITMAP
00C000
01E000
03E000
03F000
063800
041000
000000
000000
0FF800
3F7E00
780F00
780F00
F00780
F00780
F00780
780F00
7C1F00
3FFC00
0FF000
ENDCHAR
STARTCHAR otilde
ENCODING 245
SWIDTH 705 0
DWIDTH 17 0
BBX 17 17 0 0
BITMAP
038800
07F800
07F800
047000
000000
000000
0FF800
3F7E00
780F00
780F00
F00780
F00780
F00780
780F00
7C1F00
3FFC00
0FF000
ENDCHAR
STARTCHAR odieresis
ENCODING 246
SWIDTH 705 0
DWIDTH 17 0
BBX 17 17 0 0
BITMAP
021000
073800
033000
000000
000000
000000
0FF800
3F7E00
780F00
780F00
F00780
F00780
F00780
780F00
7C1F00
3FFC00
0FF000
ENDCHAR
STARTCHAR divide
ENCODING 247
SWIDTH 504 0
DWIDTH 12 0
BBX 12 14 0 0
BITMAP
0600
0F80
0F80
0F80
0000
F000
FFF0
FFF0
FFF0
0000
0600
0F00
0F80
0F00
ENDCHAR
STARTCHAR oslash
ENCODING 248
SWIDTH 705 0
DWIDTH 17 0
BBX 17 18 0 -3
BITMAP
000800
000C00
001E00
003C00
0FFC00
3F7E00
787F00
78FF00
F1E780
F1C780
F3C780
7B8F00
7F9F00
3FFC00
0FF000
1E0000
1C0000
080000
ENDCHAR
STARTCHAR ugrave
ENCODING 249
SWIDTH 614 0
DWIDTH 15 0
BBX 19 21 -2 -1
BITMAP
004000
01C000
01E000
00E000
00E000
005000
000000
000000
FEC000
3E3F00
0E0F00
1E0700
1E0700
1E0F00
1E0F00
0E0E00
0E0E00
0F1E00
0FFE00
07FFE0
000F00
ENDCHAR
STARTCHAR uacute
ENCODING 250
SWIDTH 614 0
DWIDTH 15 0
BBX 19 20 -2 -1
BITMAP
007000
007800
007000
00E000
00E000
000000
000000
FEC000
3E3F00
0E0F00
1E0700
1E0700
1E0F00
1E0F00
0E0E00
0E0E00
0F1E00
0FFE00
07FFE0
000F00
ENDCHAR
STARTCHAR ucircumflex
ENCODING 251
SWIDTH 614 0
DWIDTH 15 0
BBX 19 20 -2 -1
BITMAP
006000
00E000
01F000
03F800
071C00
020800
000000
FEC000
3E3F00
0E0F00
1E0700
1E0700
1E0F00
1E0F00
0E0E00
0E0E00
0F1E00
0FFE00
07FFE0
000F00
ENDCHAR
STARTCHAR udieresis
ENCODING 252
SWIDTH 614 0
DWIDTH 15 0
BBX 19 18 -2 -1
BITMAP
011000
03B800
033800
000000
000000
FEC000
3E3F00
0E0F00
1E0700
1E0700
1E0F00
1E0F00
0E0E00
0E0E00
0F1E00
0FFE00
07FFE0
000F00
ENDCHAR
STARTCHAR yacute
ENCODING 253
SWIDTH 655 0
DWIDTH 16 0
BBX 16 30 -1 -11
BITMAP
00E0
00F0
00E0
01C0
01C0
0000
8000
71F0
3F3F
1E1F
1E0F
3E0F
3C0F
3C0F
3C0F
3E0F
1FFF
0FFF
030F
000F
000F
000E
001E
181E
3C1E
3C1E
383C
1E7C
0FF0
03C0
ENDCHAR
STARTCHAR thorn
ENCODING 254
SWIDTH 734 0
DWIDTH 18 0
BBX 20 27 -2 -10
BITMAP
FF8000
3F8000
0F8000
078000
078000
078000
078000
038000
038000
03BE00
03FFC0
03C3E0
0380E0
0380F0
0380F0
0380F0
0380F0
03C1E0
03FFC0
03FF80
038000
038000
03C000
03C000
03C000
0FF000
7FFC00
ENDCHAR
STARTCHAR ydieresis
ENCODING 255
SWIDTH 655 0
DWIDTH 16 0
BBX 16 29 -1 -11
BITMAP
0220
0770
0670
0000
0000
8000
71F0
3F3F
1E1F
1E0F
3E0F
3C0F
3C0F
3C0F
3E0F
1FFF
0FFF
030F
000F
000F
000E
001E
181E
3C1E
3C1E
383C
1E7C
0FF0
03C0
ENDCHAR
STARTCHAR dotlessi
ENCODING 305
SWIDTH 393 0
DWIDTH 9 0
BBX 12 12 -1 0
BITMAP
FF80
0F80
0780
0780
0780
0700
0700
0700
0700
0700
1F80
7FF0
ENDCHAR
STARTCHAR Lslash
ENCODING 321
SWIDTH 713 0
DWIDTH 17 0
BBX 19 19 -2 0
BITMAP
FFFF00
1FF000
03C000
03C000
03C000
03C800
03F800
03FC00
03F820
0FE020
3FC020
1FC020
13C060
03C060
03C0E0
03C0E0
03FFE0
0FFFE0
7F0000
ENDCHAR
STARTCHAR lslash
ENCODING 322
SWIDTH 365 0
DWIDTH 9 0
BBX 13 23 -3 -2
BITMAP
FFC0
1FC0
07C0
03C0
03C0
03C0
03C0
03D8
03F8
03F8
0FE0
3F80
3F80
1B80
0380
0380
0380
0380
0380
0380
03C0
0FE0
3FF8
ENDCHAR
STARTCHAR OE
ENCODING 338
SWIDTH 1195 0
DWIDTH 29 0
BBX 28 18 0 -1
BITMAP
0000FFF0
00FFFFF0
000FE070
0183E070
1FF3E230
3F7FE230
781FE210
701FE610
F00FE600
F00FFE20
F00FFE20
F00FC620
781FC620
3C3FC220
1FFBC260
07E3C7E0
001FFFE0
007F8000
ENDCHAR
STARTCHAR oe
ENCODING 339
SWIDTH 1087 0
DWIDTH 26 0
BBX 26 12 0 -1
BITMAP
0FE03000
3FF9FE00
7C3FFF00
701F8780
F01F0380
F01F03C0
F01FFFC0
701FFFC0
783F0000
3FFF8080
0FE7FF00
0001FE00
ENDCHAR
STARTCHAR Scaron
ENCODING 352
SWIDTH 661 0
DWIDTH 16 0
BBX 16 26 0 -3
BITMAP
0C30
07F0
07E0
03C0
0180
0000
0001
0782
3FF6
7C7E
701E
F006
FC02
FF82
7FF0
3FFC
0FFE
40FE
203F
201F
301E
7E7E
6FF8
41C0
4000
4000
ENDCHAR
STARTCHAR scaron
ENCODING 353
SWIDTH 533 0
DWIDTH 13 0
BBX 13 23 0 -1
BITMAP
1860
1FC0
0FC0
0780
0300
0000
0000
0010
1F10
3FD0
70F0
F070
F830
7E10
3FC0
1FF0
47F0
40F8
6078
7878
7FF0
4FC0
8000
ENDCHAR
STARTCHAR Ydieresis
ENCODING 376
SWIDTH 848 0
DWIDTH 20 0
BBX 25 23 -3 -2
BITMAP
00108000
0039C000
00398000
00000000
00000000
00780000
FFE00000
0FC1FF80
03E07C00
01F03000
00F86000
0078C000
003D8000
001F0000
000E0000
000E0000
000E0000
000E0000
000F0000
000F0000
000F0000
003FE000
01FFFC00
ENDCHAR
STARTCHAR Zcaron
ENCODING 381
SWIDTH 685 0
DWIDTH 16 0
BBX 17 22 0 0
BITMAP
061800
07F000
03F000
01E000
00C000
000000
000000
003F80
FFFF00
7FFF00
603E00
607C00
20F800
21F000
23F100
27E100
0FC100
0F8300
1F8700
3FF700
7FFF00
FFFF00
ENDCHAR
STARTCHAR zcaron
ENCODING 382
SWIDTH 549 0
DWIDTH 13 0
BBX 14 20 0 0
BITMAP
1860
0EE0
0FC0
0780
0300
0000
0000
000C
FFF8
7FF8
61F0
61E0
63C0
47C8
4F88
1F18
1E18
3E38
7FF8
FFF8
ENDCHAR
STARTCHAR circumflex
ENCODING 710
SWIDTH 714 0
DWIDTH 17 0
BBX 9 6 5 16
BITMAP
0800
1C00
3E00
7F00
E380
4100
ENDCHAR
STARTCHAR caron
ENCODING 711
SWIDTH 714 0
DWIDTH 17 0
BBX 9 5 5 17
BITMAP
E380
7700
3E00
1C00
1C00
ENDCHAR
STARTCHAR breve
ENCODING 728
SWIDTH 715 0
DWIDTH 17 0
BBX 7 4 6 18
BITMAP
C6
FE
7C
38
ENDCHAR
STARTCHAR dotaccent
ENCODING 729
SWIDTH 708 0
DWIDTH 17 0
BBX 3 3 7 20
BITMAP
40
E0
E0
ENDCHAR
STARTCHAR ring
ENCODING 730
SWIDTH 704 0
DWIDTH 17 0
BBX 5 5 7 17
BITMAP
70
D8
D8
F8
70
ENDCHAR
STARTCHAR ogonek
ENCODING 731
SWIDTH 988 0
DWIDTH 24 0
BBX 8 6 8 -3
BITMAP
C0
C0
C0
F3
FF
7C
ENDCHAR
STARTCHAR tilde
ENCODING 732
SWIDTH 707 0
DWIDTH 17 0
BBX 7 4 6 17
BITMAP
F2
FE
FE
8C
ENDCHAR
STARTCHAR hungarumlaut
ENCODING 733
SWIDTH 671 0
DWIDTH 16 0
BBX 8 5 5 18
BITMAP
66
77
FE
EE
CC
ENDCHAR
STARTCHAR endash
ENCODING 8211
SWIDTH 576 0
DWIDTH 14 0
BBX 11 4 1 7
BITMAP
FFE0
FFE0
FFE0
FFE0
ENDCHAR
STARTCHAR emdash
ENCODING 8212
SWIDTH 993 0
DWIDTH 24 0
BBX 21 4 1 7
BITMAP
000018
FFFFF8
FFFFF8
FFFFF8
ENDCHAR
STARTCHAR quoteleft
ENCODING 8216
SWIDTH 261 0
DWIDTH 6 0
BBX 6 7 0 10
BITMAP
18
3C
3C
78
78
F0
10
ENDCHAR
STARTCHAR quoteright
ENCODING 8217
SWIDTH 301 0
DWIDTH 7 0
BBX 6 7 1 10
BITMAP
70
7C
78
F0
F0
E0
20
ENDCHAR
STARTCHAR quotesinglbase
ENCODING 8218
SWIDTH 332 0
DWIDTH 8 0
BBX 6 7 1 -2
BITMAP
70
7C
78
F0
F0
E0
20
ENDCHAR
STARTCHAR quotedblleft
ENCODING 8220
SWIDTH 477 0
DWIDTH 11 0
BBX 11 7 0 10
BITMAP
18C0
3DE0
3DE0
7BC0
7BC0
F7C0
1080
ENDCHAR
STARTCHAR quotedblright
ENCODING 8221
SWIDTH 477 0
DWIDTH 11 0
BBX 11 7 0 10
BITMAP
31C0
3DE0
7BE0
7BC0
7380
F780
2100
ENDCHAR
STARTCHAR quotedblbase
ENCODING 8222
SWIDTH 477 0
DWIDTH 11 0
BBX 11 7 0 -2
BITMAP
31C0
3DE0
7BE0
7BC0
7380
F780
2100
ENDCHAR
STARTCHAR dagger
ENCODING 8224
SWIDTH 487 0
DWIDTH 12 0
BBX 11 27 0 -7
BITMAP
0F00
0F00
0F00
0F00
0F00
0F00
7FE0
7FE0
7FE0
8F00
0F00
0F00
0F00
0F00
0F00
0F00
0F00
0F00
0F00
0F00
0700
0700
0700
0700
0700
0700
0700
ENDCHAR
STARTCHAR daggerdbl
ENCODING 8225
SWIDTH 497 0
DWIDTH 12 0
BBX 11 27 0 -7
BITMAP
0F00
0F00
0F00
0F00
0F00
0F00
7FE0
7FE0
7FE0
8F00
0F00
0F20
FFE0
7FE0
7FE0
0F00
0F00
0F00
0F00
0F00
0F00
0700
0700
0700
0700
0700
0700
ENDCHAR
STARTCHAR bullet
ENCODING 8226
SWIDTH 275 0
DWIDTH 7 0
BBX 7 6 0 6
BITMAP
7C
FC
FE
FE
FC
78
ENDCHAR
STARTCHAR ellipsis
ENCODING 8230
SWIDTH 787 0
DWIDTH 19 0
BBX 19 4 0 -2
BITMAP
70E1C0
F9F3E0
F9F3E0
78E3C0
ENDCHAR
STARTCHAR perthousand
ENCODING 8240
SWIDTH 888 0
DWIDTH 21 0
BBX 22 20 0 -1
BITMAP
002000
103C00
7C3800
EE7800
E67000
EEF000
7EE000
38E000
01C000
01C000
03C000
038000
038000
073EF8
077FFC
0E63CC
0E67CC
1E7FFC
1C3EF8
1C0000
ENDCHAR
STARTCHAR guilsinglleft
ENCODING 8249
SWIDTH 234 0
DWIDTH 6 0
BBX 5 13 0 -1
BITMAP
08
18
18
38
70
70
E0
70
70
38
18
08
08
ENDCHAR
STARTCHAR guilsinglright
ENCODING 8250
SWIDTH 223 0
DWIDTH 5 0
BBX 5 13 0 -1
BITMAP
40
C0
60
70
70
38
38
38
70
60
E0
C0
40
ENDCHAR
STARTCHAR fraction
ENCODING 8260
SWIDTH 600 0
DWIDTH 14 0
BBX 16 23 -1 -3
BITMAP
000C
000E
001F
003E
003E
007C
007C
00F8
00F0
01F0
03E0
03C0
07C0
0780
0F80
0F00
1E00
3E00
3C00
7800
7800
F000
3000
ENDCHAR
STARTCHAR Euro
ENCODING 8364
SWIDTH 590 0
DWIDTH 14 0
BBX 15 15 -1 1
BITMAP
00E0
03F8
079C
0E0E
1E1E
DC0E
FFC0
FFE0
1C00
FFE2
3FF2
0F06
0FFC
07F8
01F0
ENDCHAR
STARTCHAR trademark
ENCODING 8482
SWIDTH 624 0
DWIDTH 15 0
BBX 16 11 0 7
BITMAP
2000
2000
6000
F800
6000
6FFC
6374
6324
6B24
7FEF
3010
ENDCHAR
STARTCHAR minus
ENCODING 8722
SWIDTH 549 0
DWIDTH 13 0
BBX 13 4 0 6
BITMAP
FFF8
FFF8
FFF8
FF80
ENDCHAR
STARTCHAR fi
ENCODING 64257
SWIDTH 757 0
DWIDTH 18 0
BBX 20 33 -1 -10
BITMAP
00FC00
01FE00
038F00
070780
070780
070780
0F07C0
0F0780
0F0100
0F0000
070000
7FFFC0
7FFF80
078780
078780
078380
078380
078380
078380
038380
038380
03CFC0
03FFF0
03C000
03C000
03C000
43C000
E3C000
E3C000
E38000
778000
7F0000
080000
ENDCHAR
STARTCHAR fl
ENCODING 64258
SWIDTH 776 0
DWIDTH 19 0
BBX 21 33 -1 -10
BITMAP
00FC00
01FF00
038F00
070780
070780
070380
0F03C0
0F03C0
0F03C0
0F03C0
0703C0
7FF3C0
7FF3C0
0783C0
0783C0
0783C0
078380
078380
078380
038380
038380
03C380
03C3C0
03CFE0
03FFF8
03C000
43C000
E3C000
E3C000
E38000
778000
7F0000
080000
ENDCHAR
STARTCHAR .notdef
ENCODING -1
SWIDTH 320 0
DWIDTH 8 0
BBX 1 1 0 0
BITMAP
00
ENDCHAR
ENDFONT
